<svg xmlns="http://www.w3.org/2000/svg" id="Capa_1" height="512" viewBox="0 0 512 512" width="512"><g><path d="m258.673 223.982h15v-75h-191.174v60h-15v75h198.674v45h-7.5-7.5-51.597v15h44.097v45h-32.799v15h40.299 7.5v45h-58.598v15h73.598v-75h-15v-45h22.5v-75h-22.5zm-15 44.999h-161.174v-45h108.674v-15h-93.674v-45h161.174v45h-7.5-44.999v15h37.499z"></path><path d="m97.726 369.145c5.469.045 9.881 4.531 9.836 10l15 .123c.093-11.355-7.467-21.017-17.849-24.094v-16.029h-15v16.302c-9.787 3.297-16.894 12.516-16.985 23.411-.055 6.655 2.485 12.934 7.153 17.679 4.667 4.745 10.903 7.389 17.558 7.443 5.469.045 9.881 4.531 9.836 10-.021 2.649-1.074 5.131-2.963 6.988-1.888 1.857-4.425 2.867-7.037 2.846-5.468-.045-9.88-4.531-9.835-9.999l-15-.123c-.091 11.146 7.188 20.665 17.273 23.922v16.199h15v-16.101c3.767-1.159 7.227-3.208 10.117-6.051 4.745-4.667 7.389-10.902 7.444-17.559.112-13.739-10.973-25.009-24.712-25.123-2.648-.022-5.131-1.074-6.988-2.963s-2.869-4.388-2.847-7.036c.045-5.467 4.56-9.894 9.999-9.835z"></path><path d="m145.8 311.769-7.441 13.024c25.685 14.675 41.641 42.144 41.641 71.687 0 45.491-37.01 82.5-82.5 82.5s-82.5-37.009-82.5-82.5 37.01-82.5 82.5-82.5c9.77 0 19.325 1.688 28.403 5.018l5.166-14.082c-10.738-3.939-22.032-5.936-33.569-5.936-53.762 0-97.5 43.738-97.5 97.5s43.738 97.5 97.5 97.5 97.5-43.738 97.5-97.5c0-34.913-18.853-67.372-49.2-84.711z"></path><path d="m497 388.981v-60h-191.174v75h15v60h191.174v-75zm0 60h-161.174v-45h93.674v-15h-108.674v-45h161.174v45h-37.499v15h44.999 7.5z"></path><path d="m443.16 202.238 5.861 13.807 48.327-20.514-20.513-48.326-13.807 5.861 10.508 24.756-213.619-86.309-5.619 13.908 213.619 86.308z"></path><path d="m228.746 82.538h15v15h-15z" transform="matrix(.375 -.927 .927 .375 64.256 275.344)"></path><path d="m137.796-22.302h15v151.186h-15z" transform="matrix(.375 -.927 .927 .375 41.456 168.043)"></path><path d="m138.938 388.98h15v15h-15z"></path><path d="m41.063 388.98h15v15h-15z"></path><path d="m228.701 178.982h14.944v15h-14.944z"></path><path d="m97.527 238.982h14.943v15h-14.943z"></path><path d="m236.229 298.982h14.943v15h-14.943z"></path><path d="m228.701 418.981h14.944v15h-14.944z"></path><path d="m467.028 418.981h14.944v15h-14.944z"></path><path d="m335.854 358.981h14.944v15h-14.944z"></path></g></svg>